<?xml version="1.0" encoding="UTF-8" standalone="no"?>
<svg
   width="65.655998"
   height="68.260635"
   version="1.1"
   viewBox="0 0 65.655999 68.260635"
   id="svg6"
   sodipodi:docname="favicon.svg"
   inkscape:version="1.3.2 (091e20e, 2023-11-25, custom)"
   xmlns:inkscape="http://www.inkscape.org/namespaces/inkscape"
   xmlns:sodipodi="http://sodipodi.sourceforge.net/DTD/sodipodi-0.dtd"
   xmlns="http://www.w3.org/2000/svg"
   xmlns:svg="http://www.w3.org/2000/svg"
   xmlns:rdf="http://www.w3.org/1999/02/22-rdf-syntax-ns#"
   xmlns:cc="http://creativecommons.org/ns#"
   xmlns:dc="http://purl.org/dc/elements/1.1/">
  <defs
     id="defs6" />
  <sodipodi:namedview
     id="namedview6"
     pagecolor="#505050"
     bordercolor="#ffffff"
     borderopacity="1"
     inkscape:showpageshadow="0"
     inkscape:pageopacity="0"
     inkscape:pagecheckerboard="1"
     inkscape:deskcolor="#505050"
     inkscape:export-bgcolor="#00000000"
     inkscape:zoom="5.8028626"
     inkscape:cx="56.782319"
     inkscape:cy="39.721774"
     inkscape:window-width="1207"
     inkscape:window-height="779"
     inkscape:window-x="-4"
     inkscape:window-y="-4"
     inkscape:window-maximized="1"
     inkscape:current-layer="svg6" />
  <title
     id="title1">RSL Logo Favicon</title>
  <path
     class="st0"
     d="m 65.3,64.612742 c -10,-9.2 -18.7,-16.8 -27.9,-24.5 5.5,-0.2 11.4,-0.5 16.9,-0.9 0.6,0 1.2,-0.3 1.7,-0.7 2.1,-1.7 5,-4.6 6.8,-7.1 0.3,-0.5 0.5,-1 0.3,-1.6 -2,-8.8 -5.3,-19.3 -10.1,-28.7000003 -0.4,-0.7 -1.1,-1.2 -1.9,-1.1 -17.8,1.1 -34.6,3.5 -49.5,6.5 -0.9,0.2 -1.6,1.1 -1.6,2 0.3,18.2000003 1.3,36.9000003 2.5,55.2000003 0.1,1 0.8,1.8 1.8,1.9 6,0.9 11.8,1.7 19.8,2.1 0.7,0 1.3,-0.7 1,-1.3 -2.7,-7.7 -7,-23 -7.7,-25.7 0.7,0 1,-0.1 1.5,-0.1 3.6,7.3 9.1,17.4 13,25.8 0.5,1.1 1.5,1.7 2.7,1.8 9.3,0.2 19.4,-0.2 30.1,-1.7 0.9,-0.2 1.3,-1.3 0.6,-1.9 z m -34.3,-39.5 c -3.5,0.4 -8.8,0.8 -12.2,1 -0.3,-2.2 -0.6,-5.3 -0.7,-7.5 4.2,0.1 8.5,0.2 13,0.6 -0.1,1.9 -0.1,3.9 -0.1,5.9 z"
     id="path3"
     style="fill:#0078f0;fill-opacity:0.8" />
  <path
     class="st1"
     d="m 53.9,35.580742 c 1.8,-1.6 3.8,-3.5 5.2,-5.7 -1.8,-8.3 -4.8,-17.2 -8.7,-25.6000003 -15.4,1 -32,3.3 -46.3,5.9000003 0.6,19.3 1.5,35 3,51.6 4.5,0.6 7.7,1.1 12.9,1.5 -2.5,-8.9 -4.5,-16.2 -6.3,-25.3 2.4,-0.1 4.9,-0.2 7.5,-0.3 6,9.7 9.5,16.8 15.4,26.3 7.2,0 13.8,-0.2 20.6,-0.8 -9.8,-9.5 -18.7,-17.8 -27.9,-25.9 8.6,-0.5 17.5,-1.1 24.6,-1.7 z m -38.6,-5.7 c -0.7,-4.9 -0.9,-9.7 -1.1,-14.6 6.8,0 14.1,0.3 20.7,0.9 0.2,3.3 0.2,8.8 0,12.2 -6.3,0.5 -12.9,1 -19.6,1.5 z"
     id="path6"
     style="fill:#f0f0f0;fill-opacity:1" />
  <metadata
     id="metadata6">
    <rdf:RDF>
      <cc:Work
         rdf:about="">
        <dc:title>RSL Logo Favicon</dc:title>
        <dc:creator>
          <cc:Agent>
            <dc:title>SKC</dc:title>
          </cc:Agent>
        </dc:creator>
      </cc:Work>
    </rdf:RDF>
  </metadata>
</svg>
