<?xml version="1.0" encoding="UTF-8"?>
<svg width="162" height="75" version="1.1" viewBox="0 0 162 75" xmlns="http://www.w3.org/2000/svg" xmlns:cc="http://creativecommons.org/ns#" xmlns:dc="http://purl.org/dc/elements/1.1/" xmlns:rdf="http://www.w3.org/1999/02/22-rdf-syntax-ns#"><title>RSL Logo</title><g fill="#0078f0" fill-opacity=".8"><path class="st2" d="m122.2 1.3847c7.7 0.2 15.6 1.1 23.3 2.4 1 0.2 1.7 0.9 1.6 2-1.2 12.9-2.9 36.5-3.4 49.9h16.1c1.2 0 2.1 1.2 2.1 2.4-0.2 2.6-0.5 5.6-1.1 8.4-0.2 0.8-0.8 1.5-1.6 1.7-11.1 2.3-21 3.6-32.3 5.4-1.2 0.2-2.2-0.6-2.4-1.8-3.2-26.4-4-46.8-4.3-68.3-0.1-1.2 0.90001-2.1 2-2.1z"/><path d="m103.02 4.7753c-7.816-0.18177-14.9 0.043417-21.268 0.68945a4.0004 4.0004 0 0 0-0.0098 0.00195c-3.8882 0.40456-6.8406 0.74703-8.9199 1.0391-1.0396 0.14602-1.8496 0.2742-2.5332 0.41602-0.34182 0.070908-0.64188 0.13819-1.0254 0.26172-0.19175 0.061767-0.40177 0.1309-0.72461 0.29102s-0.81675 0.27352-1.5645 1.3203a4.0004 4.0004 0 0 0-0.32227 0.53516c-0.4584 0.91679-0.23784 0.56854-0.29297 0.73047s-0.11998 0.35804-0.20117 0.60742c-0.16239 0.49876-0.38772 1.2022-0.67969 2.123a4.0004 4.0004 0 0 0-0.02539 0.08594c-0.53662 1.8334-1.2747 4.3575-2.2129 7.5742a4.0004 4.0004 0 0 0-0.0098 0.03711c-0.90423 3.21-1.719 6.2895-2.4453 9.2402a4.0004 4.0004 0 0 0 1.957 4.4609c4.7967 2.6348 9.5713 5.0429 14.346 7.4512-1.0808-0.05801-2.1744-0.11369-3.8242-0.14844h-2e-3c-4.2342-0.09007-8.0308-0.11382-11.394-0.06836a4.0004 4.0004 0 0 0-3.8906 3.3418c-0.25267 1.516-0.42907 2.7165-0.5332 3.6797-0.05206 0.4816-0.08789 0.89652-0.09766 1.3359-0.0098 0.43942-0.19712 0.69373 0.29492 2.0059a4.0004 4.0004 0 0 0 0.13477 0.31836c2.4364 5.1026 4.3764 8.5991 6.5293 10.998a4.0004 4.0004 0 0 0 0.07813 0.08594c1.8335 1.9275 3.729 3.6754 5.6836 5.2539 1.0681 0.90504 2.247 1.2725 3.3066 1.4355a4.0004 4.0004 0 0 0 0.04297 0.0059c1.0213 0.1459 2.377 0.23334 4.6855 0.36914a4.0004 4.0004 0 0 0 0.10938 0.0059c1.6504 0.05157 4.6924 0.0233 9.4473-0.06641 4.8123-0.08995 8.6264-0.22488 11.5-0.41016l6.3652-0.40039a4.0004 4.0004 0 0 0 2.3086-0.91992l0.80274-0.66992a4.0004 4.0004 0 0 0 0.11523-0.09961c2.3514-2.1163 4.7829-4.5736 7.3066-7.3711l0.01-0.01172c2.6597-2.8984 4.575-5.4387 5.7266-8.0449a4.0004 4.0004 0 0 0 0.0176-0.04102c0.76337-1.7812 0.52812-2.3687 0.54101-3.5938 0.0129-1.2251-0.0431-2.7266-0.1582-4.5918a4.0004 4.0004 0 0 0-1.9766-3.209c-1.7231-1.0052-4.9277-2.7598-9.7461-5.3477l-0.0234-0.01367c-1.8588-1.0153-3.4574-1.8046-5.2266-2.7422 1.6617 0.01368 3.8483 0.05746 5.0918 0.04687 2.6896-0.02289 3.9192 0.06222 5.6758-0.32812a4.0004 4.0004 0 0 0 0.10157-0.02539c0.24317-0.06079 0.44723-0.09904 0.60156-0.12109a4.0004 4.0004 0 0 0 3.3435-4.7989c-1.1226-5.2388-2.7927-10.726-5-16.475a4.0004 4.0004 0 0 0-0.0156-0.03711c-0.44293-1.119-0.80661-1.9889-1.1504-2.7051-0.17189-0.3581-0.32857-0.67028-0.56445-1.0449-0.23588-0.37464 0.0847-0.95715-2.127-1.8418-0.97243-0.38897-0.94972-0.26132-1.1484-0.28711-0.19872-0.025788-0.36963-0.041002-0.5625-0.056641-0.38574-0.031276-0.84858-0.058833-1.4356-0.087891-1.1739-0.058116-2.8237-0.1201-4.9805-0.1875a4.0004 4.0004 0 0 0-0.0312-0.00195zm3.5137 6.7246c-0.046-0.07314 0.0269 0.04586 0.12305 0.24609 0.0191 0.03972 0.0701 0.17007 0.0918 0.2168-0.21937-0.2561-0.18969-0.42294-0.21485-0.46289zm-3.7324 1.2734c8.6e-4 2.6e-5 1e-3 -2.7e-5 2e-3 0 1.92 0.06001 3.287 0.11448 4.3574 0.16406 0.14159 0.33564 0.22933 0.51298 0.40625 0.95898 1.4572 3.7949 2.5564 7.3728 3.4922 10.85-0.45705 0.01758-0.29447 0.02487-0.81446 0.0293-1.6683 0.0142-4.4851-0.03379-7.0371-0.06641l-0.77343-4.082a4.0004 4.0004 0 0 0-4.127-3.252l-8.1543 0.40234c-3.0323 0.13477-5.3752 0.25735-7.0645 0.37305-0.84461 0.05785-1.5211 0.11414-2.0781 0.17383-0.55705 0.05968-0.62144-0.07942-1.8281 0.35938a4.0004 4.0004 0 0 0-2.6348 3.7598c0-0.15462-0.0075 0.14497-0.04687 0.53906a4.0004 4.0004 0 0 0-0.01953 0.39844c0 0.25387-0.03415 0.38363 0.01172 0.1543a4.0004 4.0004 0 0 0-0.07813 0.7832c0 0.25598 0.0021 0.54382 0.09375 1.002 0.09162 0.45814 0.17932 1.197 1.1445 2.1621a4.0004 4.0004 0 0 0 0.74219 0.58398c0.9574 0.58508 2.1101 1.2044 3.5137 1.9062a4.0004 4.0004 0 0 0 0.04687 0.02344c1.3745 0.6651 3.2003 1.557 5.4746 2.6719a4.0004 4.0004 0 0 0 0.05859 0.02734c2.2575 1.0624 4.1739 1.9874 5.7422 2.7715 4.1479 2.074 8.6186 4.4197 13.406 7.0352a4.0004 4.0004 0 0 0 0.0254 0.01367c3.8512 2.0682 5.8833 3.2027 7.625 4.1836 0.0195 0.60343 0.0708 1.4351 0.0664 1.8477-4e-3 0.38222-0.0749 0.68073-0.11718 0.88086-0.63199 1.2587-1.9238 3.144-4.0723 5.4844a4.0004 4.0004 0 0 0-0.0254 0.02734c-2.2889 2.5386-4.4435 4.6936-6.4805 6.5449l-5.0039 0.31641a4.0004 4.0004 0 0 0-0.0059 0c-2.6645 0.17191-6.3967 0.30586-11.141 0.39453-4.687 0.08843-7.7707 0.10526-8.9941 0.06836-2.0314-0.12069-3.2895-0.23214-3.6719-0.27539-1.5551-1.2744-3.0914-2.6752-4.5996-4.2559-0.91322-1.0254-2.7363-4.0128-4.832-8.2871 2.4402-0.0022 4.8052-0.01628 7.6816 0.04492a4.0004 4.0004 0 0 0 2e-3 0c1.0456 0.02201 1.5278 0.0582 2.2969 0.08789-0.01719 0.39871-0.03507 0.80313-0.03906 1.0996l-0.06055 0.68164a4.0004 4.0004 0 0 0 0.52344 1.5566l-0.28711-0.22461c0.0984 0.39359 0.32514 0.97494 0.74023 1.5723a4.0004 4.0004 0 0 0 0.30078 0.26562c0.25933 0.30734 0.54906 0.60729 0.99414 0.87695 0.44064 0.252 0.88955 0.49215 1.0762 0.54297 0.26479 0.07211 0.42809 0.09878 0.58203 0.12305 0.30789 0.04853 0.55679 0.071 0.84375 0.09375 0.57393 0.04549 1.2691 0.07843 2.1621 0.10742 1.786 0.05799 4.3284 0.09669 7.6738 0.11914 3.3457 0.02246 5.8886 0.01724 7.6758-0.01758 0.8936-0.01741 1.5898-0.04143 2.166-0.08008 0.2881-0.01932 0.53778-0.03823 0.8496-0.08398 0.15591-0.02288 0.3236-0.04798 0.59375-0.11914 0.07-0.01845 0.31697-0.18439 0.4043-0.20117a4.0004 4.0004 0 0 0 0.54296-0.27148c0.21664-0.10364 0.23178-0.0011 0.61133-0.30469l-0.53125 0.1875a4.0004 4.0004 0 0 0 2.166-3.2441v-0.06641a4.0004 4.0004 0 0 0-6e-3 -0.23633c-0.0339-0.57543-0.0605-1.8306-0.0605-3.584a4.0004 4.0004 0 0 0-2.0391-3.4863c-1.2951-0.72847-3.3983-1.6552-7.4043-3.4355l-0.01953-0.0098c-0.0073-0.0033-0.0063-0.0026-0.01367-0.0059-3.9683-1.8082-7.1176-3.3069-9.3906-4.4648a4.0004 4.0004 0 0 0-0.05664-0.0293c-5.3228-2.6047-10.674-5.4313-16.033-8.328 0.50604-1.955 0.99129-3.8787 1.5762-5.9551l-0.01172 0.03516c0.92736-3.1795 1.6517-5.6583 2.1855-7.4824l0.0098-0.03125c0.09035-0.2849 0.13211-0.40927 0.20898-0.65039 0.23997-0.03689 0.3246-0.05934 0.61133-0.09961 1.896-0.2663 4.7957-0.60446 8.6348-1.0039 5.9486-0.60291 12.699-0.82444 20.23-0.65039zm-7.5801 12.764 0.21094 1.1113c-3e-3 0.23004-0.01821 0.61313-0.03125 0.98438-1.205-0.59162-2.4601-1.2028-3.957-1.9102zm-11.838 19.307c2.0724 1.0285 4.4469 2.1676 7.459 3.5469-0.37024-0.0018-0.49369 0.0046-0.88672 2e-3 -2.8719-0.01928-4.8511-0.05637-6.4805-0.09961 0.03704-0.55591 0.06817-1.0601 0.12305-1.7461a4.0004 4.0004 0 0 0 0.01172-0.31836v-0.26953a4.0004 4.0004 0 0 0-0.07813-0.7832c-0.02921-0.1461-0.10908-0.20081-0.14843-0.33208zm13 7.4121c0.0022 0.04077 0.0016 0.13039 0.0039 0.16992l-0.0059-0.16797zm1.1699 2.832a4.0004 4.0004 0 0 0 3.7285 0.74023l-1.0352 0.36328c-1.2874 0-2.2685-0.67894-2.6934-1.1035z" color="#000000"/><path class="st0" d="m65.397 67.982c-10-9.2-18.7-16.8-27.9-24.5 5.5-0.2 11.4-0.5 16.9-0.9 0.6 0 1.2-0.3 1.7-0.7 2.1-1.7 5-4.6 6.8-7.1 0.3-0.5 0.5-1 0.3-1.6-2-8.8-5.3-19.3-10.1-28.7-0.4-0.7-1.1-1.2-1.9-1.1-17.8 1.1-34.6 3.5-49.5 6.5-0.9 0.2-1.6 1.1-1.6 2 0.3 18.2 1.3 36.9 2.5 55.2 0.1 1 0.8 1.8 1.8 1.9 6 0.9 11.8 1.7 19.8 2.1 0.7 0 1.3-0.7 1-1.3-2.7-7.7-7-23-7.7-25.7 0.7 0 1-0.1 1.5-0.1 3.6 7.3 9.1 17.4 13 25.8 0.5 1.1 1.5 1.7 2.7 1.8 9.3 0.2 19.4-0.2 30.1-1.7 0.9-0.2 1.3-1.3 0.6-1.9zm-34.3-39.5c-3.5 0.4-8.8 0.8-12.2 1-0.3-2.2-0.6-5.3-0.7-7.5 4.2 0.1 8.5 0.2 13 0.6-0.1 1.9-0.1 3.9-0.1 5.9z"/></g><g fill="#f0f0f0"><path class="st3" d="m124.4 5.5c6.4 0.4 12.1 0.6 18.5 1.6-1.4 16.4-2.2 35.5-2.8 51.9h18.1c-0.1 2.1-0.4 3.8-0.69999 5.8-9.3 2-19.7 3-29.3 4.7-2.9-21.8-3.8-44.4-3.8-64z"/><path d="m98.502 21.372-8.174 0.402c-6.03 0.268-9.2907 0.49133-9.782 0.67 0 0.17867-0.02233 0.49133-0.067 0.938 0 0.402-0.02233 0.71467-0.067 0.938 0 0.17867 0.02233 0.29033 0.067 0.335 0.804 0.49133 1.876 1.072 3.216 1.742 1.3847 0.67 3.216 1.5633 5.494 2.68 2.278 1.072 4.221 2.01 5.829 2.814 4.1987 2.0993 8.71 4.4667 13.534 7.102 4.824 2.5907 8.04 4.355 9.648 5.293 0.22333 3.618 0.201 5.7397-0.067 6.365-0.84867 1.9207-2.5237 4.2433-5.025 6.968-2.4567 2.7247-4.8017 5.092-7.035 7.102l-0.804 0.67-6.365 0.402c-2.7693 0.17867-6.5437 0.31267-11.323 0.402-4.7347 0.08933-7.8167 0.11167-9.246 0.067-2.278-0.134-3.7297-0.24567-4.355-0.335-0.58067-0.08933-1.0273-0.268-1.34-0.536-1.8313-1.474-3.618-3.1267-5.36-4.958-1.5633-1.742-3.5287-5.092-5.896-10.05-0.134-0.35733 0.04467-2.01 0.536-4.958 3.3053-0.04467 7.0573-0.02233 11.256 0.067 4.2433 0.08933 6.3873 0.24567 6.432 0.469v0.268c-0.08933 1.1167-0.15633 2.077-0.201 2.881-0.04467 0.89333-0.067 1.5187-0.067 1.876l-0.067 0.737h0.134c0.04467 0.17867 0.11167 0.29033 0.201 0.335 0.22333 0.17867 3.6627 0.29033 10.318 0.335s10.095-0.02233 10.318-0.201c0.0447 0 0.0893 0.02233 0.134 0.067v-0.067c-0.0447-0.75933-0.067-2.0323-0.067-3.819-0.71468-0.402-3.082-1.4963-7.102-3.283-4.02-1.8313-7.2137-3.35-9.581-4.556-6.298-3.082-12.618-6.365-18.961-9.849 0.71467-2.9033 1.5187-5.9407 2.412-9.112 0.938-3.216 1.675-5.7397 2.211-7.571 0.58067-1.8313 0.89333-2.7917 0.938-2.881 0.22333-0.31267 4.1987-0.871 11.926-1.675 6.164-0.62533 13.087-0.84867 20.77-0.67 4.288 0.134 6.5437 0.24567 6.767 0.335 0.22333 0.08933 0.75933 1.206 1.608 3.35 2.144 5.5833 3.752 10.876 4.824 15.879-0.31267 0.04467-0.64767 0.11167-1.005 0.201-1.206 0.268-6.4543 0.31267-15.745 0.134v-0.134c0.0447-0.98267 0.067-1.7197 0.067-2.211z" color="#000000"/><path class="st1" d="m53.997 38.95c1.8-1.6 3.8-3.5 5.2-5.7-1.8-8.3-4.8-17.2-8.7-25.6-15.4 1-32 3.3-46.3 5.9 0.6 19.3 1.5 35 3 51.6 4.5 0.6 7.7 1.1 12.9 1.5-2.5-8.9-4.5-16.2-6.3-25.3 2.4-0.1 4.9-0.2 7.5-0.3 6 9.7 9.5 16.8 15.4 26.3 7.2 0 13.8-0.2 20.6-0.8-9.8-9.5-18.7-17.8-27.9-25.9 8.6-0.5 17.5-1.1 24.6-1.7zm-38.6-5.7c-0.7-4.9-0.9-9.7-1.1-14.6 6.8 0 14.1 0.3 20.7 0.9 0.2 3.3 0.2 8.8 0 12.2-6.3 0.5-12.9 1-19.6 1.5z"/></g><metadata><rdf:RDF><cc:Work rdf:about=""><dc:title>RSL Logo</dc:title><dc:creator><cc:Agent><dc:title>SKC</dc:title></cc:Agent></dc:creator></cc:Work></rdf:RDF></metadata></svg>
