<?xml version="1.0" encoding="UTF-8" standalone="no"?>
<!-- Created with Inkscape (http://www.inkscape.org/) -->

<svg
   width="1197.3958"
   height="323.38281"
   viewBox="0 0 1197.3958 323.38283"
   version="1.1"
   id="svg1"
   inkscape:version="1.3.2 (091e20e, 2023-11-25, custom)"
   inkscape:export-filename="a.png"
   inkscape:export-xdpi="108"
   inkscape:export-ydpi="108"
   sodipodi:docname="velocity_full.svg"
   xmlns:inkscape="http://www.inkscape.org/namespaces/inkscape"
   xmlns:sodipodi="http://sodipodi.sourceforge.net/DTD/sodipodi-0.dtd"
   xmlns="http://www.w3.org/2000/svg"
   xmlns:svg="http://www.w3.org/2000/svg"
   xmlns:rdf="http://www.w3.org/1999/02/22-rdf-syntax-ns#"
   xmlns:cc="http://creativecommons.org/ns#"
   xmlns:dc="http://purl.org/dc/elements/1.1/">
  <title
     id="title4">Velocity Logo</title>
  <sodipodi:namedview
     id="namedview1"
     pagecolor="#505050"
     bordercolor="#ffffff"
     borderopacity="1"
     inkscape:showpageshadow="0"
     inkscape:pageopacity="0"
     inkscape:pagecheckerboard="1"
     inkscape:deskcolor="#505050"
     inkscape:document-units="px"
     showgrid="true"
     inkscape:zoom="0.82959504"
     inkscape:cx="567.74688"
     inkscape:cy="235.05444"
     inkscape:window-width="1527"
     inkscape:window-height="879"
     inkscape:window-x="-4"
     inkscape:window-y="-4"
     inkscape:window-maximized="1"
     inkscape:current-layer="svg1">
    <inkscape:grid
       id="grid1"
       units="px"
       originx="-18.176504"
       originy="-11.234375"
       spacingx="1"
       spacingy="1"
       empcolor="#0099e5"
       empopacity="0.30196078"
       color="#0099e5"
       opacity="0.05098039"
       empspacing="1"
       dotted="false"
       gridanglex="30"
       gridanglez="30"
       visible="true"
       snapvisiblegridlinesonly="false" />
  </sodipodi:namedview>
  <defs
     id="defs1" />
  <path
     id="path2"
     style="color:#000000;-inkscape-font-specification:BobloxClassic;fill:#9c948d;stroke:#66625d;stroke-width:8;stroke-linejoin:round;stroke-dasharray:none;stroke-opacity:1;paint-order:stroke fill markers"
     d="m 367.31764,4.0000006 c -0.68744,5.32e-4 -1.91238,0.282949 -4.10742,1.085937 -4.57193,1.597255 -5.90037,4.302288 -6.625,5.6328134 -0.73648,1.352294 -0.92539,2.111715 -1.09375,2.720703 -0.33671,1.217976 -0.39166,1.825067 -0.46485,2.439453 -0.14638,1.228773 -0.19293,2.26747 -0.23632,3.564453 -0.0868,2.593968 -0.094,6.017843 -0.043,10.525391 0.10206,9.015096 0.45507,22.244854 1.05664,39.824219 l -0.008,-0.410156 c 0,3.296963 0.13818,8.936607 0.40625,17.380859 0.002,0.0664 0.005,0.132839 0.008,0.199219 0.0132,0.272959 0.0201,0.480473 0.0332,0.751953 -2.45096,-7.362283 -4.80861,-13.724061 -7.09375,-18.832031 -0.035,-0.07916 -0.0708,-0.157943 -0.10742,-0.236329 -1.27457,-2.690766 -2.33747,-4.811497 -3.39258,-6.646484 -0.52756,-0.917494 -1.02728,-1.749277 -1.79101,-2.767578 -0.72971,-0.972946 -0.83636,-2.430824 -5.2793,-4.335938 -3.16905,-1.520626 -3.21322,-1.019712 -3.80664,-1.101562 -0.63005,-0.0869 -1.12013,-0.129845 -1.66992,-0.173828 -1.09957,-0.08796 -2.37188,-0.156454 -3.98438,-0.226563 -3.225,-0.140218 -7.73843,-0.273885 -13.64844,-0.408203 -0.015,-6.95e-4 -0.0299,-0.0014 -0.0449,-0.002 -21.43176,-0.406933 -40.93281,0.200061 -58.54883,1.851562 l 0.0684,-0.0078 c -10.65777,0.93842 -18.73534,1.726016 -24.38671,2.384766 -2.82569,0.329374 -5.01756,0.618394 -6.83008,0.925781 -0.90626,0.153693 -1.68774,0.296111 -2.68946,0.558594 -0.50086,0.131241 -1.0413,0.271721 -1.93945,0.636718 -0.55293,0.22471 -1.42756,0.57499 -2.56055,1.388672 -3.04007,1.821275 -2.92974,2.848804 -3.33398,3.470703 -0.46793,0.719902 -0.67098,1.134924 -0.86524,1.523438 -0.3885,0.777026 -0.64529,1.383261 -0.93945,2.097656 -0.58833,1.42879 -1.25015,3.184483 -2.08008,5.466797 -0.0372,0.101724 -0.073,0.203948 -0.10742,0.306641 -1.47328,4.419821 -3.4749,10.491279 -6,18.199214 -0.003,0.008 -0.005,0.0152 -0.008,0.0234 -0.005,0.0157 -0.007,0.0214 -0.0117,0.0371 -2.57145,7.71694 -4.88103,15.120529 -6.92578,22.208989 -0.016,0.0559 -0.0317,0.11186 -0.0469,0.16796 -0.64287,2.35721 -1.35562,5.70582 -2.56836,11.5 -0.0186,0.0877 -0.0361,0.1756 -0.0527,0.26368 -1.06016,5.69837 -1.80623,9.53776 -2.13672,11.08007 l 0.0625,-0.26953 c -1.76212,7.38734 -3.01696,13.12003 -3.79297,17.48047 -0.38801,2.18022 -0.66295,3.98451 -0.80859,5.78516 -0.0728,0.90033 -0.12516,1.78492 -0.0625,2.98242 0.0624,1.19314 -0.21067,2.5999 1.63477,5.93555 1.46536,2.67058 2.10567,3.02424 3.12304,4.14648 1.02729,1.13321 2.24234,2.38881 3.74219,3.88867 2.99971,2.99971 7.11205,6.94092 12.43164,11.92383 2.58184,2.42022 6.20375,5.47227 11.21875,9.53906 4.84295,3.95083 8.02354,6.42082 10.78711,8.31446 3.32085,2.65272 6.74311,3.41021 9.68164,3.68359 3.191,0.4611 6.66088,0.63106 12.80664,0.89258 l 0.01,0.002 c 9.56535,0.39855 16.3567,0.84542 15.375,0.73633 0.13,0.0145 0.26022,0.0269 0.39062,0.0371 9.74003,0.76094 23.95735,0.49714 43.78711,-0.58203 l -0.10156,0.006 17.40039,-0.80078 c 2.57809,-0.11863 5.04925,-1.06518 7.04687,-2.69922 l 2.20118,-1.80078 -0.31055,0.24609 c 5.49905,-4.20516 10.82127,-9.60368 16.26562,-16.18164 2.44123,-2.8219 4.5647,-5.55858 6.54297,-8.27344 0.79336,8.55873 1.33477,14.52379 1.59571,16.61133 l 1,8 c 0.0201,0.16192 0.0436,0.32341 0.0703,0.48437 l 0.40039,2.39844 c 1.09698,6.58124 7.35121,11.00429 13.92187,9.84571 l 3.20508,-0.56446 c 2.16047,-0.25875 4.16311,-0.52059 5.9336,-0.79297 0.29299,-0.0452 0.5842,-0.10122 0.87304,-0.16796 0.98885,-0.2282 4.0215,-0.77936 8.30078,-1.42774 0.009,-0.001 0.0183,-0.003 0.0274,-0.004 5.18475,-0.79765 8.72283,-1.33234 10.4707,-1.58203 0.0926,-0.0132 0.18506,-0.0276 0.27734,-0.043 1.56001,-0.26 2.76263,-0.45 3.53516,-0.56445 0.77254,-0.11444 2.35728,-0.0723 -0.10937,-0.0723 6.65853,-5.2e-4 12.04376,-5.4217 12,-12.08008 l -0.16407,-24.44141 c 2.95177,2.93422 6.72879,6.56687 11.76172,11.28125 2.58157,2.41998 6.20258,5.47289 11.2168,9.53906 0.008,0.006 0.01,0.007 0.0176,0.0137 0.005,0.004 0.007,0.006 0.0117,0.01 4.82146,3.93287 8.00185,6.40259 10.75781,8.29102 3.32079,2.65268 6.74313,3.4102 9.68164,3.68359 3.191,0.4611 6.66088,0.63106 12.80664,0.89258 l 0.0117,0.002 c 9.56535,0.39855 16.35473,0.84541 15.37305,0.73633 0.12999,0.0145 0.26022,0.0269 0.39062,0.0371 9.74003,0.76094 23.95734,0.49714 43.78711,-0.58203 l -0.10156,0.006 17.40039,-0.80078 c 2.57875,-0.11822 5.05067,-1.06479 7.04883,-2.69922 l 2.19921,-1.80078 -0.30859,0.24609 c 5.49906,-4.20516 10.81932,-9.60369 16.26367,-16.18164 3.48076,-4.02354 6.32898,-7.89586 8.86524,-11.72852 2.85863,2.81898 6.16589,6.01635 10.77734,10.33594 2.58184,2.42022 6.20375,5.47227 11.21875,9.53906 4.84292,3.9508 8.0216,6.42082 10.78516,8.31446 3.32083,2.65272 6.74506,3.41021 9.68359,3.68359 3.191,0.4611 6.66088,0.63106 12.80664,0.89258 l 0.01,0.002 c 9.56535,0.39855 16.3567,0.84541 15.375,0.73633 0.13,0.0145 0.26022,0.0269 0.39062,0.0371 9.74002,0.76094 23.95539,0.49714 43.78516,-0.58203 l -0.0996,0.006 17.40039,-0.80078 c 2.57809,-0.11863 5.04925,-1.06518 7.04687,-2.69922 l 2.19922,-1.80078 -0.30859,0.24609 c 5.49905,-4.20516 10.81933,-9.60369 16.26367,-16.18164 1.32539,-1.53206 2.3633,-2.99584 3.55274,-4.49219 0.34767,6.4009 0.79647,17.5997 1.11718,22.69531 0.37826,5.99455 5.12994,10.78629 11.1211,11.21485 l 2.80078,0.19922 -0.73047,-0.0742 c 2.67525,0.3567 5.72747,0.55601 9.54101,0.69726 3.73689,0.1384 7.35043,0.20899 10.84376,0.20899 2.17776,0 5.50392,0.062 9.83789,0.19336 4.31674,0.13081 7.2133,0.14997 9.90429,-0.0273 1.21577,0.002 2.32282,0.034 4.30664,-0.42382 1.07062,-0.24707 2.45862,-0.51794 4.61914,-2.01368 2.16052,-1.49574 5.33204,-5.69558 5.33204,-10.1289 l -0.0273,0.82617 0.40039,-5.80078 -0.0371,0.4082 c 0.43794,-4.23342 0.90204,-10.55185 1.43946,-19.2832 3.2e-4,-0.004 0.002,-0.009 0.002,-0.0137 0.67087,-8.74347 1.27236,-18.30414 1.80664,-28.72266 l 0.002,-0.0195 c 0.21766,-4.38952 0.65317,-17.7715 0.91797,-24.1211 0.69549,0.0406 1.40015,0.12696 2.09766,0.12696 0.49756,-3.5e-4 0.99461,-0.0318 1.48828,-0.0937 -1.74224,0.21778 3.26418,-0.10742 9.31055,-0.10742 0.0872,2.8e-4 0.17448,-3.4e-4 0.26171,-0.002 2.31859,-0.0504 5.10694,-0.0451 7.5879,-0.0762 -0.0814,8.03432 -0.21579,19.99304 -0.64844,52.11719 -3.6e-4,0.054 -3.6e-4,0.10807 0,0.16211 0,5.46665 1.03645,10.88302 3.14844,15.875 0.0495,0.11866 0.10097,0.2365 0.15429,0.35351 2.08203,4.51106 4.72304,8.58191 8.28711,11.92383 l 0.002,0.002 c 2.68746,2.52769 5.47535,4.75602 8.39844,6.65624 2.67654,1.78285 4.94492,3.17685 7.44336,4.3125 0.11572,0.0526 0.23227,0.10342 0.34961,0.15235 0.90924,0.37885 1.67291,0.68619 2.48047,0.97461 0.80757,0.28842 -0.19778,0.94922 4.93555,0.94922 4.28272,0 11.98061,-0.49231 25.23828,-1.42969 13.3532,-0.93472 23.57139,-1.73524 30.8164,-2.41797 7.08822,-0.53647 13.05228,-1.07395 17.90821,-1.62891 6.06075,-0.69357 10.63695,-5.82351 10.63672,-11.92382 0,-5.68888 -0.61236,-11.9854 -1.75,-19.09571 -1.16723,-7.29516 -2.50351,-13.04217 -5.11719,-18.26953 -2.08224,-4.16512 -6.38593,-6.74978 -11.04102,-6.63086 -5.22363,0.13394 -9.8507,0.26769 -13.89062,0.40235 -2.99928,0.1 -5.52016,0.12583 -8.01172,0.14843 -0.16032,-0.12229 -0.0614,0.0209 -0.28906,-0.21875 -0.67505,-0.71058 -0.75892,-1.10609 -0.89649,-1.46484 -0.0645,-0.94202 -0.0687,-1.5725 -0.18164,-3.23438 -0.23402,-3.44344 -0.58374,-8.32273 -1.04492,-14.58398 -0.38884,-6.22142 -0.44423,-7.87108 -0.67383,-11.92773 2.42789,0.0307 5.16327,0.0238 7.44141,0.0723 h 0.006 c 6.34793,0.13224 10.75187,0.27192 12.7832,0.38477 1.3106,0.0728 2.32275,0.11914 3.36719,0.11914 0.52222,0 0.97732,0.014 2,-0.0996 0.51134,-0.0568 1.08133,-0.0538 2.63672,-0.57227 0.7777,-0.25924 1.85714,-0.56618 3.61523,-1.93359 1.7581,-1.3674 4.64649,-4.98777 4.64649,-9.49609 l -0.32618,2.78125 c 0.77159,-3.2407 1.10007,-6.64527 1.2168,-10.16211 2.93436,3.80228 8.69396,11.01958 17.9707,22.51757 0.031,0.0386 0.0618,0.077 0.0937,0.11524 9.62225,11.6268 15.38145,18.5084 18.10355,21.55078 l -0.1094,-0.12305 c 8.05274,9.25052 14.08924,16.23448 18.06844,20.9043 0.091,0.10651 0.1106,0.13415 0.1992,0.23828 -0.4004,0.50698 -0.5103,0.68904 -0.9649,1.25391 -0.065,0.0805 -0.1267,0.16194 -0.1894,0.24414 -4.3202,5.66087 -13.0499,18.0983 -26.94534,38.27344 -0.01,0.0149 -0.017,0.0299 -0.027,0.0449 -13.73336,20.1334 -21.59832,31.66347 -23.60154,34.60156 l 0.23046,-0.32617 c -4.07412,5.56796 -6.6615,9.20535 -8.40624,12.11328 -0.10403,0.17324 -0.20368,0.34907 -0.29883,0.52734 -0.7841,1.47018 -1.49361,2.86632 -2.06641,5.04297 -0.56599,2.15075 -1.77205,6.31763 1.95703,11.42774 1.29253,1.84468 1.91202,2.23158 2.60352,2.84765 0.75336,0.67117 1.52084,1.29653 2.42187,2.00586 1.77319,1.39591 4.06458,3.09631 6.94141,5.17188 5.87573,4.37166 10.65868,7.71827 14.64258,10.16992 l -0.36719,-0.23438 c 2.58064,1.72037 5.63284,3.87895 9.11324,6.45704 l -0.2246,-0.16993 c 3.6856,2.86657 6.5774,5.01344 9.0235,6.64844 1.3348,0.91608 2.58424,1.71596 4.07814,2.46289 1.5139,0.75697 2.9997,1.81641 7.0664,1.81641 3.7667,0 6.9427,-1.77967 8.7012,-3.31836 1.7585,-1.53868 2.6223,-2.91422 3.3164,-4.12891 0.9913,-1.73479 2.0914,-3.93863 4.1152,-7.98633 4.0125,-8.0249 15.8856,-27.63589 34.7481,-56.85937 18.8455,-29.1974 35.6703,-53.96401 50.4238,-74.25 0.01,-0.0104 0.014,-0.0208 0.022,-0.0312 6.7825,-9.39114 12.7907,-17.06448 17.914,-22.9375 0.028,-0.0311 0.055,-0.0624 0.082,-0.0937 5.1909,-6.07714 13.0111,-14.5679 23.3183,-25.27149 2.3984,-2.40174 4.4615,-4.52971 6.1739,-6.38476 l -0.3321,0.34765 3.9024,-3.90234 c 1.0702,-0.94787 2.3705,-2.07482 3.9648,-3.42383 1.7228,-1.45776 2.9809,-2.51593 3.7305,-3.14062 0.043,-0.0355 0.085,-0.0713 0.1269,-0.10742 0.4331,-0.37124 2.3264,-1.88216 5.0625,-3.9668 0.094,-0.0715 0.1873,-0.14446 0.2793,-0.21875 2.7702,-2.24253 5.066,-4.078149 6.8633,-5.490239 0.038,-0.0304 0.076,-0.061 0.1133,-0.0918 2.505,-2.01787 4.4244,-3.62244 5.9805,-5.04883 0.778,-0.71319 1.449,-1.3424 2.2597,-2.26562 0.4053,-0.46162 0.8485,-0.96741 1.4649,-1.94336 0.6164,-0.97596 1.9668,-2.120849 1.9668,-6.687504 0,-5.266662 -3.5244,-9.115151 -5.6172,-10.580078 -2.0927,-1.464928 -3.5639,-1.901604 -4.9336,-2.3125 l 0.3457,0.109374 c -0.441,-0.147016 -1.3866,-0.527324 -2.6289,-1.148437 -6.2277,-3.113869 -14.3722,-6.272407 -24.9258,-9.835937 -10.5357,-3.557525 -15.8296,-5.682363 -22.8691,-6.017579 -0.19,-0.0091 -0.3802,-0.01363 -0.5704,-0.01367 -6.4666,0 -7.374,1.831557 -9.6054,3.179687 -2.2314,1.348129 -4.5403,2.992757 -7.2754,5.080078 -0.041,0.03163 -0.082,0.06353 -0.1231,0.0957 -5.516,4.323317 -12.4659,10.554352 -21.2793,18.960938 -8.904,8.493151 -18.0333,17.897426 -27.4023,28.216797 -0.01,0.008 -0.014,0.0169 -0.022,0.0254 l -10.834,12.00195 -11.7832,-15.07226 c -8.0613,-11.451021 -15.1955,-22.346699 -21.3847,-32.662112 l -3.1661,-5.34375 c -2.6454,-4.464021 -7.8601,-6.722331 -12.9257,-5.597656 l -3.6016,0.800781 0.1504,-0.03125 c -17.9483,3.749403 -30.80237,6.620029 -38.95218,8.727743 -4.18766,1.083017 -7.43961,2.050099 -10.46484,3.376953 -1.51262,0.663426 -2.97522,1.321881 -4.89258,2.890625 -1.37837,1.127753 -3.62195,3.44641 -4.57031,6.935547 l -1.27344,-0.126953 c -0.19816,-0.0199 -0.39679,-0.03492 -0.5957,-0.04492 -2.59693,-0.12984 -6.09823,-0.326687 -10.47266,-0.591797 -4.29363,-0.26022 -8.07409,-0.377531 -11.54883,-0.394531 -0.33921,-9.221081 -0.77734,-20.425825 -0.77734,-22.828125 9e-5,-0.02669 9e-5,-0.05339 0,-0.08008 l -0.20117,-29.800781 c -0.0404,-5.940913 -4.42146,-10.958158 -10.30274,-11.798829 -3.61453,-0.516361 -6.80635,-1.028357 -9.55078,-1.527343 -0.18613,-0.03371 -0.37304,-0.06302 -0.56055,-0.08789 -1.75759,-0.234347 -5.28516,-0.764497 -10.31445,-1.558594 -0.14221,-0.02209 -0.28481,-0.04163 -0.42773,-0.05859 -4.2311,-0.51286 -7.24112,-1.01718 -7.94532,-1.179688 -0.0449,-0.01068 -0.0898,-0.02109 -0.13476,-0.03125 -4.50337,-0.985113 -8.46584,-1.713276 -12.01172,-2.175781 -0.0501,-0.0068 -0.10022,-0.01334 -0.15039,-0.01953 l -3.40039,-0.398443 c -6.35861,-0.747317 -12.18423,3.628345 -13.23828,9.943359 l -0.40039,2.400391 c -0.0267,0.160964 -0.0502,0.322456 -0.0703,0.484375 l -1,8 0.14063,-0.865234 c -0.40293,2.01468 -0.26967,2.032641 -0.3125,2.771484 -0.0428,0.738843 -0.078,1.587413 -0.11328,2.626953 -0.0705,2.07908 -0.13779,4.89962 -0.20508,8.533203 -10e-4,0.07421 -0.002,0.148434 -0.002,0.222657 0,6.91571 -0.1321,15.14773 -0.39649,24.666015 -10e-4,0.05468 -0.002,0.109372 -0.002,0.164063 -0.0662,4.701147 -0.31861,7.389648 -0.48242,11.078125 -6.37143,0.1115 -13.31253,0.481078 -20.94336,1.142578 0.24412,-6.986983 0.35108,-8.359685 0.61719,-16.246094 0.0666,-1.990042 -0.36296,-3.965397 -1.25,-5.748047 0.64365,-1.011345 1.13214,-2.113424 1.44921,-3.269531 0.40022,-12.406902 0.7349,-23.082634 1.00196,-32.029297 0.18487,-6.21864 -4.41314,-11.547509 -10.5918,-12.275391 l -3.40039,-0.40039 c -0.026,-0.0034 -0.0521,-0.0066 -0.0781,-0.0098 -2.67713,-0.297459 -6.15192,-0.557612 -10.46094,-0.822265 -4.53878,-0.423841 -8.97081,-0.637454 -13.30274,-0.642579 -4.17114,-0.138037 -9.11502,-0.138416 -15.0332,-0.0039 h -0.006 c -5.78735,0.13459 -9.88067,0.263662 -12.58789,0.414063 -2.26482,0.125823 -4.03174,0.18164 -5.13477,0.18164 -6.70261,9e-4 -12.10536,5.491606 -11.99804,12.19336 0.13369,8.288493 0.33474,19.299796 0.60156,33.041015 0.10458,1.970809 0.69358,3.885415 1.71484,5.574219 -0.91092,1.463663 -1.4958,3.106405 -1.71484,4.816406 0.0891,4.768029 0.48764,12.73079 0.66406,18.396485 -0.48201,-1.273579 -0.81294,-2.214239 -1.33984,-3.585938 -1.91522,-5.472071 -3.49727,-9.698042 -4.89649,-12.962891 -0.0593,-0.13721 -0.12115,-0.273303 -0.18554,-0.408203 -1.27457,-2.690766 -2.33746,-4.811497 -3.39258,-6.646484 -0.52756,-0.917494 -1.02533,-1.749277 -1.78906,-2.767578 -0.73013,-0.973511 -0.8364,-2.433087 -5.28711,-4.339844 -3.15647,-1.513168 -3.20617,-1.01591 -3.79883,-1.097656 -0.63005,-0.0869 -1.12013,-0.129845 -1.66992,-0.173828 -1.09957,-0.08796 -2.37382,-0.156454 -3.98633,-0.226563 -3.225,-0.140218 -7.73843,-0.273885 -13.64844,-0.408203 -0.015,-6.95e-4 -0.0299,-0.0014 -0.0449,-0.002 -21.43175,-0.406933 -40.93086,0.200061 -58.54688,1.851562 l 0.0664,-0.0078 c -10.65776,0.93842 -18.73534,1.726016 -24.38672,2.384766 -2.82569,0.329374 -5.01756,0.618394 -6.83008,0.925781 -0.90625,0.153693 -1.68578,0.296111 -2.6875,0.558594 -0.50086,0.131241 -1.0413,0.271721 -1.93945,0.636718 -0.55262,0.224584 -1.42669,0.574378 -2.55859,1.386719 -3.04396,1.822672 -2.93349,2.85051 -3.33789,3.472656 -0.46794,0.719902 -0.67099,1.134924 -0.86524,1.523438 -0.38852,0.777026 -0.64334,1.383261 -0.9375,2.097656 -0.58833,1.42879 -1.25209,3.184483 -2.08203,5.466797 -0.0365,0.101734 -0.0717,0.203957 -0.10547,0.306641 -1.47328,4.419815 -3.4749,10.491279 -6,18.199214 -0.003,0.008 -0.005,0.0152 -0.008,0.0234 -0.005,0.0157 -0.007,0.0214 -0.0117,0.0371 -2.56558,7.69932 -4.87083,15.084517 -6.91211,22.158197 -3.89068,-15.733957 -8.89775,-30.855016 -15.3457,-45.156243 -0.0306,-0.068 -0.0618,-0.135709 -0.0937,-0.203125 -1.27457,-2.690766 -2.33746,-4.811497 -3.39258,-6.646484 -0.52755,-0.917494 -1.02729,-1.749277 -1.79101,-2.767578 -0.73022,-0.973624 -0.83485,-2.43276 -5.28711,-4.339844 -3.15378,-1.511577 -3.20438,-1.015933 -3.79688,-1.097656 -0.63005,-0.0869 -1.12013,-0.129845 -1.66992,-0.173828 -1.09957,-0.08796 -2.37382,-0.156454 -3.98633,-0.226563 -3.225,-0.140218 -7.73843,-0.273885 -13.64844,-0.408203 -0.015,-6.95e-4 -0.0299,-0.0014 -0.0449,-0.002 -21.43175,-0.406933 -40.93281,0.200061 -58.54883,1.851562 l 0.0684,-0.0078 c -10.65777,0.93842 -18.73534,1.726016 -24.38672,2.384766 -2.82568,0.329374 -5.01756,0.618394 -6.83007,0.925781 -0.90626,0.153693 -1.68579,0.296111 -2.6875,0.558594 -0.50086,0.131241 -1.04132,0.271721 -1.93946,0.636718 -0.55294,0.22471 -1.42951,0.57499 -2.5625,1.388672 -3.04007,1.821275 -2.92974,2.848804 -3.33398,3.470703 -0.46793,0.719902 -0.67099,1.134924 -0.86524,1.523438 -0.38852,0.777026 -0.64334,1.383261 -0.9375,2.097656 -0.58833,1.42879 -1.2521,3.184483 -2.08203,5.466797 -0.0372,0.101724 -0.073,0.203948 -0.10742,0.306641 -1.47327,4.41982 -3.4749,10.491279 -6,18.199214 -0.003,0.008 -0.005,0.0152 -0.008,0.0234 -0.005,0.0157 -0.007,0.0214 -0.0117,0.0371 -1.72318,5.17128 -3.15389,9.994562 -4.64063,14.882812 0.36886,-7.605322 0.56875,-12.828012 1.02539,-21.658201 l 0.002,-0.04102 c 6.2e-4,-0.012 9.5e-4,-0.0173 0.002,-0.0293 1.06296,-18.465661 1.94514,-32.812503 2.63867,-42.951172 0.69466,-10.15526 1.43237,-17.203436 1.40235,-17.029297 0.0485,-0.28038 0.0867,-0.562583 0.11523,-0.845703 l 0.19922,-2 c 0.63228,-6.330102 -3.78475,-12.053813 -10.06836,-13.0468754 l -3.79883,-0.599609 0.24805,0.04297 c -6.1712,-1.107652 -15.47236,-2.071804 -28.95313,-3.150391 -6.67294,-0.539227 -11.84011,-0.897757 -15.6582,-1.076172 -1.90904,-0.08921 -3.46239,-0.136437 -4.86914,-0.125 -0.70337,0.0057 -0.99336,-0.221265 -1.71875,-0.220703 z M 60.93873,22.623048 c -2.116332,0.139592 -4.191772,0.699739 -6.101562,1.654297 -7.960762,3.980381 -16.341967,9.220641 -25.382813,15.71875 C 20.455338,46.464138 13.586031,52.026994 8.3195904,57.644532 3.3975964,62.895087 2.5864094,70.785573 6.3371684,76.927735 19.859752,99.067646 33.657426,122.35136 47.727793,146.7754 c 13.865495,24.0684 24.338678,45.0752 31.410156,62.7539 2.196847,5.49224 7.244457,9.32452 13.124997,9.96485 6.35913,0.6912 12.227434,1.18081 17.642584,1.46679 2.96513,0.17226 6.06639,0.16113 9.40625,0.01 0.003,-1.2e-4 0.005,1.3e-4 0.008,0 2.94724,-0.12867 5.47025,-0.32675 7.8711,-0.62696 l 2.74219,-0.19726 c 5.46908,-0.39109 10.35712,-3.5552 12.95312,-8.38477 14.6615,-27.28667 27.83531,-55.19401 39.51367,-83.71093 11.57733,-28.270234 20.64764,-52.60809 27.23242,-73.185555 2.67024,-8.34514 -1.86745,-17.285654 -10.17968,-20.05664 -6.46324,-2.154411 -11.46721,-3.779574 -15.1543,-4.914063 -0.2232,-0.06806 -0.44787,-0.131222 -0.67383,-0.189453 l -19.19922,-5 c -7.80061,-2.031157 -15.89429,2.057107 -18.88867,9.541016 -10.5156,26.289002 -19.24443,45.113326 -25.30469,55.375001 L 109.83736,106.53344 C 102.66409,89.569996 93.956756,69.013766 90.349076,60.404528 c -0.011,-0.02737 -0.0221,-0.05472 -0.0332,-0.08203 -2.70669,-6.360704 -4.73209,-10.967864 -6.27735,-14.212891 -1.54524,-3.245026 -3.146616,-6.23342 -4.876949,-9.001953 l 0.376953,0.636719 c -0.990511,-1.760908 -2.025407,-3.766962 -3.085938,-6.00586 -2.48256,-5.238772 -7.604456,-8.725097 -13.388672,-9.113281 -0.710086,-0.0477 -1.419555,-0.04848 -2.125,-0.002 z m 263.72071,51.009766 c -0.21373,-0.284969 -0.0555,-0.08381 0.18359,0.332031 0.069,0.119951 0.27525,0.557644 0.36133,0.714843 -0.50583,-0.553668 -0.43755,-0.903711 -0.54492,-1.046874 z m 226.19922,0 c -0.21373,-0.284969 -0.0536,-0.08381 0.18554,0.332031 0.0692,0.120344 0.27686,0.558962 0.36328,0.716797 -0.50806,-0.554953 -0.4413,-0.905475 -0.54882,-1.048828 z m 166.19922,0 c -0.21373,-0.284969 -0.0536,-0.08381 0.18554,0.332031 0.069,0.119951 0.27525,0.557644 0.36133,0.714843 -0.50584,-0.553673 -0.43951,-0.903711 -0.54687,-1.046874 z M 314.92311,76.98047 c 0.003,5.9e-5 0.003,-5.8e-5 0.006,0 5.14164,0.116882 8.73729,0.232775 11.61523,0.345703 0.28097,0.567217 0.40759,0.764246 0.73242,1.447265 3.50356,7.849293 8.13399,22.077162 13.27149,40.324222 -0.0202,0.009 -0.0404,0.0181 -0.0605,0.0273 -0.87992,0.41407 -4.19389,1.58722 -8.8164,2.8125 -4.26409,1.03327 -9.46666,1.94576 -15.48438,2.6914 3.85525,-2.43137 6.00046,-6.8368 5.53711,-11.37109 l -0.40058,-3.59956 c -0.0283,-0.25501 -0.0648,-0.50905 -0.10938,-0.76172 -0.84781,-4.80431 -1.77912,-9.129694 -2.83007,-13.033204 l 0.0937,0.37109 -0.80078,-3.40039 c -1.27555,-5.420022 -6.1116,-9.250854 -11.67969,-9.251954 h -17 c -9.30194,0 -17.9729,0.272646 -26.02735,0.828125 -3.99416,0.27546 -7.10417,0.547844 -9.60937,0.871094 -1.2526,0.16162 -2.32573,0.320826 -3.5625,0.603516 -1.23676,0.282689 -1.98042,-1.293011 -6.88672,3.613279 -2.6082,2.6082 -2.65846,3.73727 -3.07812,4.77539 -0.41967,1.03811 -0.67815,1.88819 -0.93555,2.80078 -0.51479,1.82518 -0.9676,3.849744 -1.46875,6.355474 -0.0136,0.0689 -0.0267,0.13791 -0.0391,0.20703 -0.49899,2.74443 -1.13544,5.86431 -1.90821,9.3418 -0.005,0.0247 -0.0105,0.0495 -0.0156,0.0742 l -2.19922,10.19922 c -1.26412,7.48152 4.64505,14.2439 12.22852,13.99414 l -5.50196,1.22265 c -4.11484,0.91462 -7.44818,3.921 -8.78125,7.91993 l -0.19922,0.59961 c -0.28471,0.85255 -0.47273,1.73437 -0.56054,2.6289 -0.53493,5.48308 -0.86431,8.9771 -1.01368,10.76953 -0.007,0.0826 -0.0139,0.1653 -0.0195,0.24805 -0.1496,2.39353 -0.21994,4.34532 -0.10351,6.38281 0.0582,1.01875 0.12945,2.03568 0.49804,3.54688 0.0989,0.40556 0.33105,1.07273 0.46875,1.62695 l -4.07812,-0.76367 -0.004,-0.004 c -5.21371,-4.88373 -9.20219,-8.70999 -11.86914,-11.37695 -0.47344,-0.47343 -0.65357,-0.68084 -1.04101,-1.07813 0.0375,-0.22315 0.0273,-0.24288 0.0703,-0.48437 0.62399,-3.5062 1.80326,-8.97122 3.50781,-16.11719 0.0219,-0.0896 0.0427,-0.17945 0.0625,-0.26953 0.46151,-2.15374 1.18144,-5.91833 2.22461,-11.52148 1.17041,-5.58711 2.04692,-9.3905 2.20899,-9.99024 1.94146,-6.72382 4.14287,-13.7919 6.61523,-21.208984 0.007,-0.0195 0.013,-0.039 0.0195,-0.0586 2.49915,-7.62896 4.45771,-13.568815 5.9082,-17.921871 0.027,-0.074 0.0341,-0.08751 0.0606,-0.160156 0.55495,-0.0693 0.73002,-0.109324 1.36719,-0.183594 5.21526,-0.607909 13.1707,-1.388167 23.71289,-2.316406 l 0.0684,-0.0059 c 16.50467,-1.547315 35.12406,-2.141264 55.80664,-1.75 z m 226.20117,0 c 0.003,5.9e-5 0.003,-5.8e-5 0.006,0 5.14241,0.116899 8.73721,0.23276 11.61524,0.345703 0.28505,0.575467 0.41205,0.774211 0.74218,1.46875 9.8595,21.889747 16.47846,45.806187 19.80469,71.904297 0.006,0.0489 0.0127,0.0977 0.0195,0.14649 0.84194,6.01379 1.12087,9.8363 1.17774,9.47851 -0.0443,0.10675 -0.006,0.0691 -0.082,0.21094 -0.0291,0.0551 -0.0577,0.11046 -0.0859,0.16602 -1.91229,3.72392 -5.22856,8.52274 -9.99414,14.02148 -0.062,0.0715 -0.12326,0.14381 -0.1836,0.2168 -4.44204,5.3772 -8.47354,9.33358 -11.9082,12.04101 l -13.39063,0.61524 c -0.0339,0.001 -0.0677,0.003 -0.10156,0.004 -19.37016,1.05416 -33.28667,1.19153 -40.61328,0.61914 l 0.39063,0.0371 c -3.37937,-0.37549 -7.3934,-0.46255 -17.01368,-0.86328 h -0.0117 c -5.90766,-0.25181 -9.81605,-0.59352 -10.28126,-0.64453 -1.41268,-0.99417 -4.30428,-3.16958 -8.83203,-6.86328 -0.009,-0.008 -0.0182,-0.0156 -0.0273,-0.0234 -4.83062,-3.91672 -8.27285,-6.86016 -9.95117,-8.43359 l -0.004,-0.004 c -5.21371,-4.88373 -9.20218,-8.70999 -11.86914,-11.37695 -0.47343,-0.47343 -0.65357,-0.68084 -1.04101,-1.07813 0.0375,-0.22315 0.0273,-0.24288 0.0703,-0.48437 0.62399,-3.5062 1.80522,-8.97122 3.50976,-16.11719 0.0212,-0.0896 0.0414,-0.17945 0.0606,-0.26953 0.46152,-2.15374 1.18143,-5.91833 2.22461,-11.52148 1.16787,-5.57496 2.03832,-9.35645 2.20313,-9.96875 1.94291,-6.73001 4.14813,-13.80577 6.62304,-21.230474 0.007,-0.0195 0.0131,-0.0391 0.0195,-0.0586 2.50487,-7.64643 4.47049,-13.607421 5.92188,-17.962886 0.02,-0.0548 0.0252,-0.0651 0.0449,-0.119141 0.55561,-0.0694 0.73108,-0.109214 1.36914,-0.183594 5.21528,-0.607909 13.17071,-1.388167 23.71289,-2.316406 0.0221,-0.002 0.0443,-0.0039 0.0664,-0.0059 16.50467,-1.547315 35.12601,-2.141264 55.80859,-1.75 z m 166.19922,0 c 0.003,5.9e-5 0.003,-5.8e-5 0.006,0 5.1424,0.116899 8.73721,0.23276 11.61523,0.345703 0.26282,0.530567 0.38407,0.721226 0.68555,1.353515 1.00004,2.346408 2.44917,6.150257 4.24024,11.267578 0.0399,0.11521 0.0816,0.22981 0.125,0.34375 0.86202,2.24128 1.40658,3.7752 2.13867,5.72852 -2.0927,0.28755 -4.147,0.60933 -6.34375,0.80273 l -8.69141,0.54297 c -0.12932,-0.4854 -0.25703,-1.31534 -0.39062,-1.76953 l 0.16796,0.63867 -0.79882,-3.40039 c -1.27571,-5.420732 -6.11282,-9.251764 -11.68164,-9.251954 h -17 c -9.30195,0 -17.97095,0.272646 -26.02539,0.828125 -3.99417,0.27546 -7.10418,0.547844 -9.60938,0.871094 -1.2526,0.16162 -2.32768,0.320826 -3.56445,0.603516 -1.23677,0.282689 -1.98043,-1.293011 -6.88672,3.613279 -2.6082,2.6082 -2.65651,3.73727 -3.07617,4.77539 -0.41966,1.03811 -0.6801,1.88819 -0.9375,2.80078 -0.5148,1.82518 -0.96565,3.849744 -1.4668,6.355474 -0.0136,0.0689 -0.0267,0.13791 -0.0391,0.20703 -0.7771,4.27406 -1.43101,7.41544 -1.83594,9.03516 -0.0461,0.18453 -0.0878,0.37013 -0.125,0.55664 -1.15341,5.76704 -2.37093,13.45854 -3.72266,23.32617 -0.007,0.0533 -0.0134,0.10673 -0.0195,0.16016 -1.21745,9.87485 -1.97636,17.78068 -2.26953,24.02344 -0.14462,2.34074 -0.2161,4.27484 -0.10156,6.27929 0.0582,1.01875 0.1275,2.03568 0.49609,3.54688 0.36858,1.5112 0.36188,4.10197 4.78321,7.41797 4.13732,3.10299 4.43455,2.11517 5.13671,2.25195 0.70216,0.13679 1.11621,0.17927 1.52735,0.22266 0.82229,0.0868 1.55094,0.13031 2.43554,0.17382 1.76921,0.087 4.06129,0.14807 7.04493,0.19922 5.96727,0.10229 14.62157,0.15235 26.05664,0.15235 11.50153,0 20.20326,-0.0501 26.20312,-0.15235 2.99993,-0.0511 5.30571,-0.11234 7.08203,-0.19922 0.88815,-0.0434 1.62062,-0.0874 2.44336,-0.17382 0.41136,-0.0432 0.82406,-0.0847 1.52539,-0.22071 0.66155,-0.12832 1.18344,0.51875 4.70703,-2 4.08015,-2.67617 4.32625,-4.94852 4.76758,-6.18164 0.46588,-1.30174 0.60014,-2.10214 0.72852,-2.86328 0.25677,-1.52227 0.3461,-2.80198 0.42578,-4.33594 0.15563,-2.99572 0.1759,-6.8554 0.11328,-11.75195 2.24906,-0.23936 2.21073,-0.25916 5.23828,-0.5625 4.27052,-0.35404 8.21408,-0.40678 11.81641,-0.18164 0.12815,0.008 0.25642,0.0138 0.38476,0.0176 2.16197,0.0655 3.42571,0.23796 5.11524,0.36523 0.52973,4.32606 0.89807,7.87593 0.94336,7.58594 -0.044,0.10564 -0.008,0.0675 -0.082,0.20703 -0.0297,0.0551 -0.059,0.11045 -0.0879,0.16602 -1.91229,3.72392 -5.22661,8.52274 -9.99219,14.02148 -0.062,0.0715 -0.12326,0.14381 -0.1836,0.2168 -4.44204,5.3772 -8.47354,9.33358 -11.9082,12.04101 l -13.39258,0.61524 c -0.0332,0.001 -0.0664,0.003 -0.0996,0.004 -19.37016,1.05416 -33.28667,1.19153 -40.61328,0.61914 l 0.39063,0.0371 c -3.37976,-0.37553 -7.39296,-0.46243 -17.01563,-0.86328 h -0.01 c -5.90828,-0.25176 -9.8146,-0.59341 -10.28125,-0.64453 -1.41266,-0.99414 -4.30619,-3.16954 -8.83399,-6.86328 -0.009,-0.008 -0.0181,-0.0156 -0.0273,-0.0234 -4.83063,-3.91672 -8.27285,-6.86016 -9.95117,-8.43359 l -0.004,-0.004 c -5.2137,-4.88373 -9.20024,-8.70999 -11.86719,-11.37695 -0.47344,-0.47343 -0.65357,-0.68084 -1.04101,-1.07813 0.0375,-0.22315 0.0273,-0.24288 0.0703,-0.48437 0.62399,-3.5062 1.80326,-8.97122 3.50781,-16.11719 0.0212,-0.0896 0.0415,-0.17945 0.0606,-0.26953 0.45894,-2.14172 1.17929,-5.90661 2.21289,-11.45703 1.17944,-5.63505 2.0492,-9.41999 2.21484,-10.03516 1.9428,-6.7295 4.14836,-13.80443 6.62305,-21.228514 0.007,-0.0195 0.0131,-0.0391 0.0195,-0.0586 2.50486,-7.64643 4.47049,-13.607421 5.92188,-17.962886 0.02,-0.0548 0.0252,-0.0651 0.0449,-0.119141 0.55561,-0.0694 0.73108,-0.109214 1.36914,-0.183594 5.21527,-0.607909 13.1707,-1.388167 23.71289,-2.316406 l 0.0684,-0.0059 c 16.50467,-1.547315 35.12406,-2.141264 55.80664,-1.75 z m -376.64648,0.535156 c 0.12091,0.0084 0.41849,0.02184 0.51171,0.0293 0.28354,0.02268 0.45141,0.04563 0.30469,0.02539 -0.0861,-0.01188 -0.21899,0.08939 -0.8164,-0.05469 z m 226.19921,0 c 0.12138,0.0084 0.42017,0.02182 0.51368,0.0293 0.28355,0.02268 0.4514,0.04563 0.30468,0.02539 -0.0861,-0.01188 -0.22095,0.08939 -0.81836,-0.05469 z m 166.20118,0 c 0.12082,0.0084 0.41856,0.02184 0.51171,0.0293 0.28355,0.02268 0.45141,0.04563 0.30469,0.02539 -0.0861,-0.01188 -0.21899,0.08939 -0.8164,-0.05469 z m -490.47657,2.617188 c -0.0845,0.06057 -0.22373,0.23284 -0.30664,0.291015 -0.48304,0.29095 -0.84763,0.550759 -1.53125,0.892578 0.65543,-0.327884 1.2562,-0.744682 1.83789,-1.183593 z m 226.19922,0 c -0.0851,0.06096 -0.22518,0.234479 -0.30859,0.292968 -0.48242,0.29046 -0.84708,0.549506 -1.5293,0.890625 0.65543,-0.327884 1.2562,-0.744682 1.83789,-1.183593 z m 166.20117,0 c -0.0845,0.06057 -0.22373,0.23284 -0.30664,0.291015 -0.48304,0.29095 -0.84763,0.550759 -1.53125,0.892578 0.65543,-0.327884 1.2562,-0.744682 1.83789,-1.183593 z m -109.80468,3.449218 c -9.30194,0 -17.97094,0.272646 -26.02539,0.828125 -3.99417,0.27546 -7.10613,0.547844 -9.61133,0.871094 -1.2526,0.16162 -2.32573,0.320826 -3.5625,0.603516 -1.23677,0.282689 -1.98043,-1.293011 -6.88672,3.613279 -2.6082,2.6082 -2.65847,3.73727 -3.07813,4.77539 -0.41967,1.03811 -0.67814,1.88819 -0.93554,2.80078 -0.51479,1.82518 -0.96565,3.849744 -1.4668,6.355474 -0.0143,0.0689 -0.0279,0.1379 -0.041,0.20703 -0.77709,4.27406 -1.42904,7.41544 -1.83398,9.03516 -0.0461,0.18453 -0.0877,0.37013 -0.125,0.55664 -1.1534,5.76704 -2.37093,13.45854 -3.72266,23.32617 -0.008,0.0533 -0.0147,0.10673 -0.0215,0.16016 -1.21626,9.86523 -1.97379,17.76005 -2.26758,24 -0.14575,2.35264 -0.21848,4.2908 -0.10351,6.30273 0.0582,1.01875 0.12945,2.03568 0.49804,3.54688 0.36858,1.5112 0.36188,4.10197 4.78321,7.41797 4.13732,3.10299 4.43456,2.11517 5.13672,2.25195 0.70215,0.13679 1.11425,0.17927 1.52539,0.22266 0.82228,0.0868 1.55093,0.13031 2.43554,0.17382 1.7692,0.087 4.06324,0.14807 7.04688,0.19922 5.96727,0.10229 14.61962,0.15235 26.05469,0.15235 11.50152,0 20.20521,-0.0501 26.20507,-0.15235 2.99993,-0.0511 5.30572,-0.11234 7.08203,-0.19922 0.88816,-0.0434 1.61868,-0.0874 2.44141,-0.17382 0.41137,-0.0432 0.82407,-0.0847 1.52539,-0.22071 0.66238,-0.12848 1.18087,0.52636 4.7168,-2.0039 4.07229,-2.67387 4.31872,-4.94543 4.75976,-6.17774 0.46588,-1.30174 0.60014,-2.10214 0.72852,-2.86328 0.25677,-1.52227 0.3461,-2.80198 0.42578,-4.33594 0.15824,-3.04601 0.18193,-6.9325 0.11524,-11.94922 v -0.0215 c -0.13905,-21.90248 -2.17775,-40.81787 -6.38868,-56.935554 l 0.0703,0.28516 -0.80079,-3.40039 c -1.27554,-5.420022 -6.11159,-9.250854 -11.67968,-9.251954 z M 295.11452,101.73047 c 0.0293,0.12419 0.0605,0.24791 0.0937,0.3711 0.025,0.0928 0.0473,0.24194 0.0723,0.33594 z m 226.20117,0 c 0.0223,0.0953 0.0457,0.1904 0.0703,0.28516 0.0147,0.0562 0.0245,0.1234 0.0391,0.17969 z m 166.19922,0 c 0.0501,0.21439 0.10613,0.42737 0.16797,0.63868 0.0379,0.129 0.15098,0.73803 0.19531,0.90234 z m -172.31836,5.85157 h 7.40039 c 2.7116,12.54379 4.28817,27.63361 4.40039,45.47656 -1e-4,0.0286 -1e-4,0.0573 0,0.0859 0.0229,1.69573 -0.0292,2.31711 -0.0312,3.69921 -5.70823,0.0846 -13.34821,0.13868 -23.9707,0.13868 -10.16166,0 -17.28735,-0.0544 -22.92774,-0.13282 0.34849,-4.80723 0.72901,-9.79809 1.63281,-17.13671 1.30789,-9.53638 2.48734,-16.89962 3.46289,-21.77735 l -0.125,0.55664 c 0.61413,-2.45651 1.26259,-5.75209 2.00782,-9.80273 1.30695,-0.1151 2.05165,-0.21706 3.77539,-0.33594 7.41219,-0.51118 15.54365,-0.77148 24.375,-0.77148 z m 166.19922,0 h 7.41211 c 0.34747,1.60638 0.56622,2.29368 0.98632,4.57421 1.10069,5.9725 6.48953,10.18143 12.55078,9.80274 l 19.19922,-1.19922 c 0.10035,-0.007 0.20062,-0.0143 0.30078,-0.0234 8.19757,-0.71909 15.99227,-2.02095 23.3711,-3.93945 1.32897,-0.37602 2.58306,-0.97861 3.70703,-1.78125 0.1361,3.06633 0.1329,4.69614 0.28516,7.93164 0.12355,2.9235 0.20501,3.79576 0.32617,6.60742 l -1.91797,-0.26172 c -3.50256,-0.47762 -7.48732,-0.74889 -12.08594,-0.89257 -4.8543,-0.29208 -9.89356,-0.21183 -15.13086,0.22461 -0.0658,0.005 -0.13155,0.0112 -0.19726,0.0176 -9.37272,0.93727 -14.37737,1.43997 -17.23047,1.87891 -6.0249,0.92681 -10.39795,6.22303 -10.16797,12.31445 l 0.39258,10.37891 c 0.022,1.65794 -0.0273,2.27307 -0.0293,3.6289 -5.70827,0.0846 -13.34739,0.13868 -23.9707,0.13868 -10.16175,0 -17.28929,-0.0544 -22.92969,-0.13282 0.34849,-4.80723 0.72901,-9.79809 1.63281,-17.13671 1.30788,-9.53638 2.48734,-16.89962 3.46289,-21.77735 l -0.125,0.55664 c 0.61412,-2.45651 1.26259,-5.75209 2.00782,-9.80273 1.30695,-0.1151 2.05165,-0.21706 3.77539,-0.33594 7.41218,-0.51118 15.54364,-0.77148 24.375,-0.77148 z m -404.51758,0.38281 -2.27735,0.38476 0.26368,-0.041 c -5.24461,0.76484 -9.8744,1.53361 -14.40821,2.30469 0.11921,-0.61439 0.28249,-1.33007 0.39258,-1.92383 1.30652,-0.11504 2.05058,-0.21712 3.77344,-0.33594 3.72688,-0.25702 8.16792,-0.25967 12.25586,-0.38867 z m -20.02735,1.08203 c -1.52589,0.97022 -1.65682,0.22335 -1.70507,0.23437 -0.0701,0.016 0.47304,-0.0922 1.28711,-0.19726 0.0831,-0.0107 0.32868,-0.0261 0.41796,-0.0371 z m 226.19922,0 c -1.5259,0.97022 -1.65683,0.22335 -1.70508,0.23437 -0.0701,0.016 0.47304,-0.0922 1.28711,-0.19726 0.0831,-0.0107 0.32869,-0.0261 0.41797,-0.0371 z m 166.19922,0 c -1.52545,0.96977 -1.65683,0.22335 -1.70508,0.23437 -0.0701,0.016 0.47304,-0.0922 1.28711,-0.19726 0.0831,-0.0107 0.3287,-0.0261 0.41797,-0.0371 z m -290.3789,26.7168 c 0.0636,0.76802 0.0748,0.88779 0.14453,1.73242 -1.19376,0.0525 -2.35264,0.32307 -3.46485,0.7168 1.14571,-0.71984 2.25456,-1.52256 3.32032,-2.44922 z m -8.16407,5.07617 -0.23633,0.10937 c 0.0483,-0.0215 0.0904,-0.0507 0.13868,-0.0723 0.0303,-0.0141 0.0675,-0.0229 0.0976,-0.0371 z m -0.48633,0.18945 c -2.06376,2.21386 -3.21484,5.12576 -3.22265,8.15235 0,-4.26201 1.42153,-6.56696 2.85742,-8.00977 0.11521,-0.0512 0.25085,-0.0905 0.36523,-0.14258 z m -48.80664,10.20508 c -0.35633,1.15929 -0.61718,2.48642 -0.61718,4.14844 1.5e-4,0.0645 7.6e-4,0.12891 0.002,0.19336 0.01,0.59076 -0.0166,0.72235 -0.0117,1.26757 -5.70885,0.0847 -13.35827,0.13868 -23.99023,0.13868 -3.42505,0 -4.81196,-0.0358 -7.72852,-0.0449 5.21383,-1.03063 9.28827,-1.90772 16.06445,-3.14649 l 0.008,-0.002 c 0.006,-0.001 0.008,-8.7e-4 0.0137,-0.002 5.95002,-1.07589 10.81969,-1.69363 16.25976,-2.55273 z m 23.38086,3.95508 0.002,0.19336 c 0,0.0125 -0.004,0.0189 -0.004,0.0312 -10e-4,-0.0921 0.003,-0.13166 0.002,-0.22461 z m -16.29297,1.42187 c 0.35423,-0.0777 0.42738,-0.009 0.57618,0.0371 -0.088,0.005 -0.0702,0.007 -0.16797,0.0117 -0.1053,0.005 -0.39883,0.009 -0.51563,0.0137 0.0182,-0.004 0.09,-0.0587 0.10742,-0.0625 z m 226.19922,0 c 0.35423,-0.0777 0.42738,-0.009 0.57617,0.0371 -0.0872,0.005 -0.0693,0.007 -0.16601,0.0117 -0.10569,0.005 -0.40028,0.009 -0.51758,0.0137 0.0182,-0.004 0.09,-0.0587 0.10742,-0.0625 z m 166.20117,0 c 0.35423,-0.0777 0.42738,-0.009 0.57618,0.0371 -0.0881,0.005 -0.0701,0.007 -0.16797,0.0117 -0.1053,0.005 -0.39883,0.009 -0.51563,0.0137 0.0182,-0.004 0.09,-0.0587 0.10742,-0.0625 z m -455.5957,0.008 c 0.0155,0.003 0.0796,0.0507 0.0957,0.0547 -0.11973,-0.005 -0.41974,-0.008 -0.52734,-0.0137 -0.0776,-0.004 -0.0613,-0.004 -0.13281,-0.008 0.14874,-0.044 0.2191,-0.10983 0.56445,-0.0332 z m 226.19922,0 c 0.0155,0.003 0.0796,0.0507 0.0957,0.0547 -0.1197,-0.005 -0.41978,-0.008 -0.52734,-0.0137 -0.0776,-0.004 -0.0613,-0.004 -0.13281,-0.008 0.14874,-0.044 0.21911,-0.10983 0.56445,-0.0332 z m 166.19922,0 c 0.0155,0.003 0.0796,0.0507 0.0957,0.0547 -0.1197,-0.005 -0.41978,-0.008 -0.52734,-0.0137 -0.0776,-0.004 -0.0613,-0.004 -0.13281,-0.008 0.14884,-0.0441 0.21842,-0.10998 0.56445,-0.0332 z m -291.07227,6.48828 c -1.9823,3.33743 -4.642,7.1592 -8.5039,11.61523 -0.062,0.0715 -0.12326,0.14381 -0.1836,0.2168 -4.44204,5.3772 -8.47354,9.33358 -11.9082,12.04101 l -13.39062,0.61524 c -0.0339,0.001 -0.0677,0.003 -0.10157,0.004 l -34.4707,-6.45731 c 7.52357,-0.0474 15.75778,-0.15624 24.92773,-0.3125 2.99993,-0.0511 5.30572,-0.11234 7.08204,-0.19922 0.88815,-0.0434 1.61866,-0.0874 2.4414,-0.17382 0.41136,-0.0432 0.82406,-0.0847 1.52539,-0.22071 0.66415,-0.12883 1.17332,0.53997 4.73633,-2.01562 3.37995,-2.25151 4.0365,-4.3819 4.54492,-5.62305 0.54277,-1.32499 0.71245,-2.1667 0.86328,-2.93164 0.28541,-1.44745 0.37156,-2.58905 0.45313,-3.875 3.49522,-0.43018 6.90051,-0.85184 12.49609,-1.48437 0.03,-0.003 0.06,-0.007 0.0899,-0.01 4.14728,-0.50053 6.33824,-0.80091 9.39843,-1.18945 z m 577.89844,1.69336 c 0.007,0.0722 0.009,0.0202 0.0156,0.0957 l 0.0508,1.08594 c 0,-0.39891 -0.058,-0.84077 -0.0664,-1.18164 z m -507.86914,4.1289 c 0.0145,0.0265 0.0189,0.0267 0.0332,0.0527 0.007,0.0122 0.005,0.0151 0.0117,0.0273 z m 166.19922,0 c 0.0145,0.0265 0.0189,0.0267 0.0332,0.0527 0.007,0.0122 0.005,0.0151 0.0117,0.0273 z m 12.81055,2.73438 -0.0859,0.16601 c 0.0157,-0.0294 0.0254,-0.0643 0.041,-0.0937 0.0124,-0.0241 0.0326,-0.0482 0.0449,-0.0723 z m 422.63864,1.89844 c 0.063,-0.11334 -0.172,0.2882 -0.584,0.875 -0.01,0.0145 -0.044,0.0575 -0.055,0.0723 0.2952,-0.75768 0.6034,-0.88432 0.6386,-0.94726 z m -300.26755,13.76953 c -0.0412,0.0317 -0.0938,0.0878 -0.13477,0.11914 -0.10485,0.0797 -0.20837,0.16106 -0.31054,0.24414 z m -392.41211,0.01 c -0.0376,0.029 -0.0856,0.0807 -0.12305,0.10938 -0.10419,0.0797 -0.20706,0.16108 -0.30859,0.24414 z m 226.18945,0.01 c -0.0345,0.0265 -0.0789,0.0733 -0.11328,0.0996 -0.10419,0.0797 -0.20706,0.16108 -0.30859,0.24414 z"
     inkscape:label="outline" />
  <path
     id="path3"
     style="color:#000000;-inkscape-font-specification:BobloxClassic;fill:#f0f0f0;stroke:#66625d;stroke-width:2;stroke-linejoin:round;stroke-dasharray:none;stroke-opacity:1;paint-order:stroke fill markers"
     d="m 373.34694,16.332032 c -3.56667,-0.166666 -5.61706,-0.149218 -6.15039,0.05078 -0.8,0.266666 -0.60039,17.933368 0.59961,53 0,2.93333 0.13372,8.600011 0.40039,17 0.4,8.266652 0.73333,15.867448 1,22.800778 0.26666,6.93333 0.40039,10.53216 0.40039,10.79883 0.13333,1.33333 0.73216,8.53295 1.79883,21.59961 1.19999,13.06665 2.26784,25.33412 3.20117,36.80078 1.06666,11.46665 1.66549,17.73411 1.79883,18.80078 l 1,8 0.40039,2.39844 3.40039,-0.59961 c 2.26666,-0.26667 4.26667,-0.53216 6,-0.79883 1.73333,-0.4 4.79922,-0.9349 9.19922,-1.60156 5.19999,-0.8 8.73489,-1.33295 10.60156,-1.59961 3.19999,-0.53334 4.99844,-0.79883 5.39844,-0.79883 l -0.19922,-29.60156 c 0,-12.39999 1.19961,-41.79927 3.59961,-88.199218 2.13333,-37.066627 3.5345,-57.533728 4.20117,-61.400391 l 0.19922,-2 -3.80078,-0.599609 c -5.2,-0.933333 -14.46551,-1.933335 -27.79883,-3 -6.6,-0.533333 -11.68334,-0.884115 -15.25,-1.050782 z m 403.25,6.650391 c -5.73333,0.133333 -9.80118,0.267057 -12.20117,0.400391 -2.4,0.133333 -4.33217,0.199218 -5.79883,0.199218 0.13333,8.266659 0.33294,19.266681 0.59961,33 10.79999,-1.333332 21.0655,-2.131771 30.79883,-2.398437 5.46666,-0.133333 11.13333,0.265886 17,1.199219 5.86666,0.933332 8.9345,1.40039 9.20117,1.40039 0.4,-12.399987 0.73333,-23.066675 1,-32 l -3.40039,-0.40039 c -2.4,-0.266667 -5.79923,-0.534115 -10.19922,-0.800782 -4.26666,-0.399999 -8.4004,-0.599609 -12.40039,-0.599609 -3.86667,-0.133333 -8.73295,-0.133333 -14.59961,0 z m 86.39844,0.201172 -0.39844,2.398437 -1,8 c -0.13334,0.666666 -0.26706,4.600789 -0.40039,11.800782 0,7.066659 -0.13373,15.400009 -0.40039,25 -0.13334,9.466653 -0.46667,17.067455 -1,22.800782 h -7.59961 c -7.6,0 -16.4004,0.4651 -26.40039,1.39844 l -1,1.80078 c -0.93334,1.86666 -1.40039,6.399614 -1.40039,13.599614 0,3.59999 0.33333,6.79961 1,9.59961 1.19999,0.13333 2.26784,0.20117 3.20117,0.20117 1.06666,-0.13334 4.6655,-0.20117 10.79883,-0.20117 6.13332,-0.13334 12.8,-0.19922 20,-0.19922 0,3.33333 -0.2655,24.80043 -0.79883,64.40039 0,3.99999 0.73255,7.73255 2.19922,11.19922 1.59999,3.46666 3.46627,6.20117 5.59961,8.20117 2.26666,2.13333 4.53411,3.93177 6.80078,5.39844 2.39999,1.59999 4.33216,2.73372 5.79883,3.40039 1.59999,0.66666 2.53411,1 2.80078,1 3.06666,0 11.2004,-0.46706 24.40039,-1.40039 13.33332,-0.93334 23.53295,-1.73178 30.59961,-2.39844 7.06666,-0.53333 12.93294,-1.06823 17.59961,-1.60156 0,-4.8 -0.53295,-10.53256 -1.59961,-17.19922 -1.06667,-6.66666 -2.40001,-11.60079 -4,-14.80078 -5.2,0.13333 -9.80079,0.26705 -13.80078,0.40039 -4,0.13333 -7.59884,0.20117 -10.79883,0.20117 -1.86667,0 -4.06628,-1.33334 -6.59961,-4 -2.53333,-2.66667 -3.86667,-4.73451 -4,-6.20117 0,-1.06667 -0.46706,-7.93296 -1.40039,-20.59961 -0.8,-12.79999 -1.26706,-21.06745 -1.40039,-24.80078 7.33332,0 14.13373,0.0678 20.40039,0.20117 6.39999,0.13333 10.79922,0.26706 13.19922,0.40039 2.39999,0.13333 3.59961,0.13333 3.59961,0 0.66666,-2.8 1,-6.00157 1,-9.60156 -10e-6,-7.2 -0.46511,-11.732954 -1.39844,-13.599614 -0.4,-0.8 -0.73334,-1.39883 -1,-1.79883 l -4,-0.40039 c -2.66667,-0.13334 -6.20157,-0.33294 -10.60156,-0.59961 -4.4,-0.26667 -8.26628,-0.40039 -11.59961,-0.40039 -2.8,0 -6.39884,0.19961 -10.79883,0.59961 -0.8,-19.199978 -1.20117,-31.000398 -1.20117,-35.400393 l -0.19922,-29.798828 c -3.73333,-0.533333 -7.06667,-1.06823 -10,-1.601563 -2,-0.266666 -5.53295,-0.79961 -10.59961,-1.599609 -4.4,-0.533333 -7.46784,-1.000391 -9.20117,-1.400391 -4.26667,-0.933332 -7.93334,-1.6 -11,-2 z M 61.995371,38.587892 c -6.933326,3.466663 -14.667847,8.267063 -23.201172,14.40039 -8.533325,6.133327 -14.798832,11.332947 -18.798828,15.59961 13.599986,22.266644 27.46629,45.667868 41.599609,70.201178 14.13332,24.53331 24.933736,46.13218 32.400396,64.79883 6.133324,0.66666 11.732164,1.13372 16.798824,1.40039 2.26667,0.13333 4.86745,0.13333 7.80078,0 3.06667,-0.13334 5.53373,-0.33295 7.4004,-0.59961 l 2.79882,-0.20117 c 14.39999,-26.79998 27.33413,-54.19925 38.80078,-82.19922 11.46666,-27.999974 20.39884,-52.000028 26.79883,-72.000008 -6.39999,-2.133331 -11.33216,-3.734115 -14.79883,-4.800781 l -19.20117,-5 C 149.72716,66.854141 140.9287,86.055745 133.99538,97.789066 L 107.19459,141.38868 C 91.994606,105.52205 81.461641,80.587878 75.59498,66.587892 c -2.666664,-6.266661 -4.666668,-10.799613 -6,-13.59961 -1.333332,-2.799997 -2.666668,-5.267059 -4,-7.40039 -1.199998,-2.133332 -2.39961,-4.46667 -3.599609,-7 z M 786.59694,63.982423 c -8.26666,0.533333 -17.4004,1.533335 -27.40039,3 0.26666,14.266649 0.93333,32.733753 2,55.400397 1.6,37.86663 2.99922,66.33374 4.19922,85.40039 l 2.80078,0.19922 c 1.99999,0.26666 4.80039,0.46627 8.40039,0.59961 3.59999,0.13333 7.06511,0.20117 10.39844,0.20117 2.39999,0 5.80117,0.0659 10.20117,0.19922 4.39999,0.13333 7.46588,0.13333 9.19922,0 1.73333,0 2.59961,-0.19961 2.59961,-0.59961 l 0.40039,-5.80078 c 0.4,-3.86667 0.86705,-10.13217 1.40039,-18.79883 0.66666,-8.66666 1.26744,-18.19962 1.80078,-28.59961 0.8,-16.13332 1.93177,-45.93377 3.39844,-89.400396 -13.19999,-1.599998 -22.99845,-2.200781 -29.39844,-1.800781 z m 345.59956,0.400391 c -1.3333,0 -4.5329,1.934118 -9.5996,5.800781 -4.9333,3.866663 -11.7337,9.932563 -20.4004,18.199219 -8.6666,8.266652 -17.6007,17.466286 -26.8007,27.599616 l -20.4004,22.59961 -20.7989,-26.59961 c -8.2666,-11.73332 -15.6,-22.932964 -22,-33.599616 l -3.2011,-5.400391 -3.5996,0.800781 c -17.8666,3.733326 -30.66712,6.599612 -38.40042,8.59961 -7.73333,1.999998 -11.53178,3.666668 -11.39844,5 0.13333,1.066663 4.59844,7.266282 13.39844,18.599616 2.66664,3.46666 8.73457,11.06746 18.20112,22.80078 9.6,11.59999 15.5322,18.66589 17.7989,21.19922 16.1333,18.53331 24.2011,28.00039 24.2011,28.40039 0,0.8 -2.1996,3.93373 -6.5996,9.40039 -3.8666,5.06666 -12.7349,17.66551 -26.6015,37.79883 -13.7333,20.13331 -21.59966,31.66823 -23.59963,34.60156 -4,5.46666 -6.59883,9.19922 -7.79883,11.19922 -1.06667,2 -1.4,3.26745 -1,3.80078 0.53333,0.8 3.66513,3.26511 9.39844,7.39844 5.73332,4.26666 10.33422,7.46823 13.80082,9.60156 2.8,1.86666 5.9996,4.13216 9.5996,6.79883 3.6,2.79999 6.4004,4.86784 8.4004,6.20117 2.1333,1.46666 3.6003,2.19922 4.4003,2.19922 0.5334,0 1.0663,-0.46706 1.5997,-1.40039 0.5333,-0.93334 1.8007,-3.4004 3.8007,-7.40039 4.6667,-9.33333 16.4652,-28.6667 35.3985,-58 18.9333,-29.33331 35.8674,-54.26552 50.8008,-74.79883 6.9333,-9.59999 13.133,-17.53412 18.5996,-23.80078 5.4666,-6.4 13.4008,-14.99884 23.8007,-25.79883 2.4,-2.4 4.4,-4.46784 6,-6.20117 l 4.1993,-4.19922 c 1.2,-1.06667 2.667,-2.33412 4.4004,-3.80078 1.7332,-1.46667 3.0007,-2.532564 3.8007,-3.199224 0.9334,-0.8 2.7997,-2.26706 5.5996,-4.40039 2.8,-2.26667 5.1334,-4.13295 7,-5.59961 4.8,-3.866663 7.1993,-6.066278 7.1993,-6.599611 0,-0.533333 -0.6667,-1.000391 -2,-1.400391 -1.2,-0.399999 -2.5993,-1.000782 -4.1993,-1.800781 -5.3333,-2.666661 -13.1337,-5.732556 -23.4003,-9.199219 -10.2667,-3.466663 -16.7997,-5.267057 -19.5997,-5.40039 z m -816.99995,0.599609 c -21.06665,-0.4 -40.13257,0.200783 -57.19922,1.800781 -21.19998,1.866665 -32.06823,3.132162 -32.60156,3.798828 -0.26667,0.133333 -1.19883,2.400786 -2.79883,6.800782 -1.46667,4.399992 -3.46667,10.465895 -6,18.199222 -2.53333,7.599994 -4.80079,14.867454 -6.80078,21.800784 -0.4,1.46666 -1.2004,5.06745 -2.40039,10.80078 -1.06667,5.73333 -1.79922,9.53177 -2.19922,11.39844 -3.46667,14.53332 -4.86589,22.40156 -4.19922,23.60156 0.8,1.46666 6.46668,7.13334 17,17 2.13333,2 5.66628,5 10.59961,9 5.06666,4.13333 8.59961,6.86589 10.59961,8.19922 0.8,0.66666 1.99961,1.06588 3.59961,1.19922 1.73333,0.26666 5.73334,0.53411 12,0.80078 9.59999,0.4 15.00117,0.66745 16.20117,0.80078 8.53332,0.66666 22.59924,0.4651 42.19922,-0.60156 l 17.40039,-0.79883 2.19922,-1.80078 c 4.53333,-3.46667 9.33373,-8.26707 14.40039,-14.40039 5.19999,-6 9.06628,-11.46511 11.59961,-16.39844 1.06666,-2 1.59961,-3.66667 1.59961,-5 0,-1.33333 -0.46511,-5.33334 -1.39844,-12 0,0.26667 -7.73452,1.33255 -23.20117,3.19922 -15.33332,1.73333 -23,2.73333 -23,3 0.13333,8.26666 -0.13217,12.6 -0.79883,13 -0.53333,0.4 -12.26786,0.59961 -35.20117,0.59961 -22.79998,0 -34.46667,-0.19961 -35,-0.59961 -0.53334,-0.4 -0.66706,-2.73334 -0.40039,-7 0.13333,-1.6 0.46666,-5.13295 1,-10.59961 l 0.20117,-0.59961 10.79883,-2.40039 c 7.33332,-1.6 17.20157,-3.53412 29.60156,-5.80078 12.53332,-2.26667 23.99845,-4.06706 34.39844,-5.40039 6.53332,-0.8 12.26784,-1.8 17.20117,-3 5.06666,-1.33334 8.73333,-2.53295 11,-3.59961 2.4,-1.06667 4.26627,-2.20039 5.59961,-3.40039 1.46666,-1.33334 2.33294,-2.19961 2.59961,-2.59961 0.26666,-0.4 0.40039,-0.73334 0.40039,-1 -6.13333,-22.66665 -11.46667,-39.065908 -16,-49.199226 -2.4,-5.066661 -3.93295,-7.733333 -4.59961,-8 -0.53334,-0.266666 -6.66707,-0.534115 -18.40039,-0.800781 z m 226.19922,0 c -21.06665,-0.4 -40.13257,0.200783 -57.19922,1.800781 -21.19998,1.866665 -32.06628,3.132162 -32.59961,3.798828 -0.26667,0.133333 -1.20079,2.400786 -2.80078,6.800782 -1.46667,4.399992 -3.46667,10.465895 -6,18.199222 -2.53333,7.599994 -4.80079,14.867454 -6.80078,21.800784 -0.4,1.46666 -1.19844,5.06745 -2.39844,10.80078 -1.06667,5.73333 -1.80117,9.53177 -2.20117,11.39844 -3.46667,14.53332 -4.86589,22.40156 -4.19922,23.60156 0.8,1.46666 6.46667,7.13334 17,17 2.13333,2 5.66628,5 10.59961,9 5.06666,4.13333 8.59961,6.86589 10.59961,8.19922 0.79999,0.66666 1.99961,1.06588 3.59961,1.19922 1.73333,0.26666 5.73333,0.53411 12,0.80078 9.59999,0.4 15.00117,0.66745 16.20117,0.80078 8.53332,0.66666 22.59924,0.4651 42.19922,-0.60156 l 17.40039,-0.79883 2.19922,-1.80078 c 4.53332,-3.46667 9.33372,-8.26707 14.40039,-14.40039 5.19999,-6 9.06627,-11.46511 11.59961,-16.39844 1.06666,-2 1.60156,-3.66667 1.60156,-5 0,-1.33333 -0.46706,-5.33334 -1.40039,-12 -3.46667,-27.19997 -10.40079,-52.333754 -20.80078,-75.400396 -2.4,-5.066661 -3.93295,-7.733333 -4.59961,-8 -0.53334,-0.266666 -6.66707,-0.534115 -18.40039,-0.800781 z m 166.20117,0 c -21.06665,-0.4 -40.13452,0.200783 -57.20117,1.800781 -21.19998,1.866665 -32.06628,3.132162 -32.59961,3.798828 -0.26667,0.133333 -1.20079,2.400786 -2.80078,6.800782 -1.46667,4.399992 -3.46667,10.465895 -6,18.199222 -2.53334,7.599994 -4.79884,14.867454 -6.79883,21.800784 -0.4,1.46666 -1.20039,5.06745 -2.40039,10.80078 -1.06667,5.73333 -1.79922,9.53177 -2.19922,11.39844 -3.46667,14.53332 -4.86784,22.40156 -4.20117,23.60156 0.79999,1.46666 6.46667,7.13334 17,17 2.13333,2 5.66628,5 10.59961,9 5.06666,4.13333 8.60156,6.86589 10.60156,8.19922 0.8,0.66666 1.99961,1.06588 3.59961,1.19922 1.73333,0.26666 5.73334,0.53411 12,0.80078 9.59999,0.4 14.99922,0.66745 16.19922,0.80078 8.53332,0.66666 22.60119,0.4651 42.20117,-0.60156 l 17.39844,-0.79883 2.20117,-1.80078 c 4.53333,-3.46667 9.33373,-8.26707 14.40039,-14.40039 5.19999,-6 9.06628,-11.46511 11.59961,-16.39844 1.06666,-2 1.59961,-3.66667 1.59961,-5 0,-1.33333 -0.46706,-5.33334 -1.40039,-12 -0.13334,-1.46667 -0.46667,-3.93373 -1,-7.40039 l -4.40039,-0.59961 c -2.93334,-0.4 -6.60001,-0.66745 -11,-0.80078 -4.26667,-0.26667 -8.79962,-0.20078 -13.59961,0.19922 -9.33333,0.93333 -14.86628,1.53411 -16.59961,1.80078 l 0.40039,10.59961 c 0.13333,9.86665 -0.13412,15.00039 -0.80078,15.40039 -0.53334,0.4 -12.26591,0.59961 -35.19922,0.59961 -22.79998,0 -34.46667,-0.19961 -35,-0.59961 -0.53334,-0.4 -0.66706,-2.73334 -0.40039,-7 0.26666,-5.73333 0.99922,-13.4659 2.19922,-23.19922 1.33333,-9.73332 2.53489,-17.26824 3.60156,-22.60156 0.53333,-2.13333 1.2,-5.39884 2,-9.79883 0.93333,-4.66666 1.66588,-7.267454 2.19922,-7.800784 0.53333,-0.53334 4.66706,-1.06628 12.40039,-1.59961 7.73332,-0.53334 16.13256,-0.80078 25.19922,-0.80078 h 17 l 0.80078,3.40039 c 0.66666,2.266664 1.46706,5.933344 2.40039,11.000004 l 19.19922,-1.19922 c 7.59999,-0.66667 14.73373,-1.86628 21.40039,-3.59961 l -2,-5.800784 c -1.33334,-3.73333 -3.00001,-8.2004 -5,-13.400393 -1.86667,-5.333328 -3.39961,-9.399225 -4.59961,-12.199219 -2.4,-5.066661 -3.9349,-7.733333 -4.60156,-8 -0.53334,-0.266666 -6.66512,-0.534115 -18.39844,-0.800781 z M 288.99733,95.582036 h 17 l 0.79883,3.40039 c 0.93333,3.466664 1.79961,7.466674 2.59961,12.000004 l 0.40039,3.59961 -33.19922,5.60156 c -12.79999,1.86666 -23.33295,3.73294 -31.59961,5.59961 l 2.19922,-10.20117 c 0.8,-3.6 1.46666,-6.8655 2,-9.79883 0.93333,-4.66666 1.66588,-7.267454 2.19922,-7.800784 0.53333,-0.53334 4.66706,-1.06628 12.40039,-1.59961 7.73332,-0.53334 16.13451,-0.80078 25.20117,-0.80078 z m 226.19922,0 h 17 l 0.79883,3.40039 c 3.86666,14.799984 5.86666,32.800024 6,54.000004 0.13333,9.86665 -0.13217,15.00039 -0.79883,15.40039 -0.53334,0.4 -12.26786,0.59961 -35.20117,0.59961 -22.79998,0 -34.46667,-0.19961 -35,-0.59961 -0.53334,-0.4 -0.66511,-2.73334 -0.39844,-7 0.26666,-5.73333 0.99922,-13.4659 2.19922,-23.19922 1.33333,-9.73332 2.53294,-17.26824 3.59961,-22.60156 0.53333,-2.13333 1.2,-5.39884 2,-9.79883 0.93333,-4.66666 1.66783,-7.267454 2.20117,-7.800784 0.53333,-0.53334 4.66511,-1.06628 12.39844,-1.59961 7.73332,-0.53334 16.13451,-0.80078 25.20117,-0.80078 z"
     inkscape:label="text" />
  <metadata
     id="metadata4">
    <rdf:RDF>
      <cc:Work
         rdf:about="">
        <dc:title>Velocity Logo</dc:title>
      </cc:Work>
    </rdf:RDF>
  </metadata>
</svg>
